<svg id="visual" viewBox="0 0 900 600" width="900" height="600" xmlns="http://www.w3.org/2000/svg" xmlns:xlink="http://www.w3.org/1999/xlink" version="1.1"><rect x="0" y="0" width="900" height="600" fill="#001220"></rect><defs><linearGradient id="grad1_0" x1="33.3%" y1="0%" x2="100%" y2="100%"><stop offset="20%" stop-color="#001220" stop-opacity="1"></stop><stop offset="80%" stop-color="#001220" stop-opacity="1"></stop></linearGradient></defs><defs><linearGradient id="grad2_0" x1="0%" y1="0%" x2="66.7%" y2="100%"><stop offset="20%" stop-color="#001220" stop-opacity="1"></stop><stop offset="80%" stop-color="#001220" stop-opacity="1"></stop></linearGradient></defs><g transform="translate(900, 0)"><path d="M0 486.7C-48.9 436.5 -97.7 386.2 -149.2 360.3C-200.7 334.4 -254.9 332.9 -309.7 309.7C-364.5 286.5 -420.1 241.5 -449.7 186.3C-479.3 131 -483 65.5 -486.7 0L0 0Z" fill="#FBAE3C"></path></g><g transform="translate(0, 600)"><path d="M0 -486.7C67 -483.5 134 -480.2 186.3 -449.7C238.6 -419.2 276.1 -361.5 311.8 -311.8C347.5 -262.2 381.4 -220.5 410.2 -169.9C439 -119.3 462.9 -59.6 486.7 0L0 0Z" fill="#FBAE3C"></path></g></svg>